# Wavefront OBJ file
# Exported by Misfit Model 3D 1.3.8
# Tue Mar 26 13:29:56 2013

mtllib bomb.mtl

# 66 Vertices
v -0.048637 0.053014 0.037734
v -0.038697 0.038203 0.030951
v -0.059345 0.0247 0.055563
v -0.027655 0.038895 0.043992
v -0.037596 0.053706 0.050775
v -0.042646 0.116509 0.047705
v -0.030876 0.127644 0.03857
v -0.060952 0.142066 0.049351
v -0.041917 0.128336 0.025531
v -0.050897 0.112176 0.031305
v 0.040568 0.051995 0.047393
v 0.029206 0.038273 0.040423
v 0.059282 0.023913 0.049825
v 0.039927 0.037018 0.027203
v 0.048794 0.053513 0.033188
v 0.04846 0.113786 0.034309
v 0.037877 0.129762 0.027371
v 0.058674 0.14266 0.049825
v 0.027156 0.128508 0.040591
v 0.038518 0.114785 0.047561
v 0.00264 0.025216 -0.017568
v -0.014274 0.030081 -0.025305
v -0.00065 0.003451 -0.039942
v -0.005192 0.03797 -0.038001
v 0.011722 0.033105 -0.030264
v 0.011332 0.134307 -0.028246
v -0.005582 0.129442 -0.035983
v -0.002471 0.16332 -0.036949
v -0.014665 0.137331 -0.023287
v 0.002249 0.142196 -0.01555
v -0.062395 0.075598 -0.015733
v -0.058521 0.093639 -0.021045
v -0.086438 0.081987 -0.036895
v -0.049692 0.088347 -0.034401
v -0.053565 0.070306 -0.029089
v 0.051793 0.070777 -0.029021
v 0.051634 0.089092 -0.035949
v 0.084662 0.082383 -0.036895
v 0.056749 0.09411 -0.020978
v 0.060622 0.076069 -0.015666
v -0.000682 0.010505 0.006529
v 0.051452 0.032716 0.006529
v 0.039569 0.044164 0.049075
v 0.074507 0.082942 0.006529
v 0.045347 0.082942 0.056881
v 0.039569 0.12172 0.049075
v -0.000682 0.127286 0.056881
v -0.000682 0.155379 0.006529
v -0.040932 0.121719 0.049075
v -0.052816 0.133168 0.006529
v -0.075871 0.082942 0.006529
v 0.051452 0.133168 0.006529
v 0.04597 0.127886 -0.029377
v 0.052666 0.082942 -0.038425
v 0.04597 0.037998 -0.029377
v -0.000682 0.082942 -0.061194
v -0.000682 0.031547 -0.038425
v -0.047334 0.037998 -0.029377
v -0.052816 0.032716 0.006529
v -0.047334 0.127886 -0.029377
v -0.000682 0.134337 -0.038425
v -0.046711 0.082942 0.056881
v -0.040933 0.044164 0.049075
v -0.000682 0.038598 0.056881
v -0.05403 0.082942 -0.038425
v -0.000682 0.082942 0.074251

# 240 Texture Coordinates
vt 0.170667 0.942596
vt 0.229631 0.942596
vt 0.288596 0.842915
vt 0.288596 0.842915
vt 0.229631 0.942596
vt 0.288596 0.942596
vt 0.288596 0.842915
vt 0.288596 0.942596
vt 0.347591 0.942596
vt 0.406555 0.942596
vt 0.288596 0.842915
vt 0.347591 0.942596
vt 0.347591 0.942596
vt 0.288596 0.942596
vt 0.288596 0.842915
vt 0.288596 0.842915
vt 0.288596 0.942596
vt 0.229631 0.942596
vt 0.288596 0.842915
vt 0.229631 0.942596
vt 0.170667 0.942596
vt 0.347591 0.942596
vt 0.288596 0.842915
vt 0.406555 0.942596
vt 0.347591 0.942596
vt 0.288596 0.942596
vt 0.288596 0.842915
vt 0.288596 0.842915
vt 0.288596 0.942596
vt 0.229631 0.942596
vt 0.288596 0.842915
vt 0.229631 0.942596
vt 0.170667 0.942596
vt 0.347591 0.942596
vt 0.288596 0.842915
vt 0.406555 0.942596
vt 0.170667 0.942596
vt 0.229631 0.942596
vt 0.288596 0.857021
vt 0.288596 0.857021
vt 0.229631 0.942596
vt 0.288596 0.942596
vt 0.288596 0.857021
vt 0.288596 0.942596
vt 0.347591 0.942596
vt 0.406555 0.942596
vt 0.288596 0.857021
vt 0.347591 0.942596
vt 0.347591 0.942596
vt 0.288596 0.942596
vt 0.288596 0.842915
vt 0.288596 0.842915
vt 0.288596 0.942596
vt 0.229631 0.942596
vt 0.288596 0.842915
vt 0.229631 0.942596
vt 0.170667 0.942596
vt 0.347591 0.942596
vt 0.288596 0.842915
vt 0.406555 0.942596
vt 0.170667 0.942596
vt 0.229631 0.942596
vt 0.288596 0.842915
vt 0.288596 0.842915
vt 0.229631 0.942596
vt 0.288596 0.942596
vt 0.288596 0.842915
vt 0.288596 0.942596
vt 0.347591 0.942596
vt 0.406555 0.942596
vt 0.288596 0.842915
vt 0.347591 0.942596
vt 0.347591 0.942596
vt 0.288596 0.942596
vt 0.288596 0.842915
vt 0.288596 0.842915
vt 0.288596 0.942596
vt 0.229631 0.942596
vt 0.288596 0.842915
vt 0.229631 0.942596
vt 0.170667 0.942596
vt 0.347591 0.942596
vt 0.288596 0.842915
vt 0.406555 0.942596
vt 0.170667 0.942596
vt 0.229631 0.942596
vt 0.288596 0.842915
vt 0.288596 0.842915
vt 0.229631 0.942596
vt 0.288596 0.942596
vt 0.288596 0.842915
vt 0.288596 0.942596
vt 0.347591 0.942596
vt 0.406555 0.942596
vt 0.288596 0.842915
vt 0.347591 0.942596
vt 0.249056 0.802205
vt 0.424597 0.691391
vt 0.346418 0.564894
vt 0.346418 0.564894
vt 0.424597 0.691391
vt 0.493063 0.407334
vt 0.346418 0.564894
vt 0.493063 0.407334
vt 0.349605 0.407334
vt 0.349605 0.407334
vt 0.493063 0.407334
vt 0.346418 0.249743
vt 0.349605 0.407334
vt 0.346418 0.249743
vt 0.249056 0.244617
vt 0.249056 0.244617
vt 0.346418 0.249743
vt 0.249056 0.012463
vt 0.249056 0.244617
vt 0.249056 0.012463
vt 0.151663 0.249743
vt 0.151663 0.249743
vt 0.249056 0.012463
vt 0.073515 0.123246
vt 0.151663 0.249743
vt 0.073515 0.123246
vt 0.005048 0.407334
vt 0.746963 0.004636
vt 0.922023 0.117483
vt 0.881009 0.221926
vt 0.881009 0.221926
vt 0.922023 0.117483
vt 0.990309 0.406788
vt 0.881009 0.221926
vt 0.990309 0.406788
vt 0.885369 0.406788
vt 0.885369 0.406788
vt 0.990309 0.406788
vt 0.881009 0.59165
vt 0.885369 0.406788
vt 0.881009 0.59165
vt 0.746963 0.406788
vt 0.746963 0.406788
vt 0.881009 0.59165
vt 0.746963 0.597686
vt 0.746963 0.406788
vt 0.746963 0.597686
vt 0.612947 0.59165
vt 0.612947 0.59165
vt 0.746963 0.597686
vt 0.746963 0.80894
vt 0.612947 0.59165
vt 0.746963 0.80894
vt 0.571903 0.696093
vt 0.990309 0.406788
vt 0.922023 0.696093
vt 0.881009 0.59165
vt 0.881009 0.59165
vt 0.922023 0.696093
vt 0.746963 0.80894
vt 0.881009 0.59165
vt 0.746963 0.80894
vt 0.746963 0.597686
vt 0.249056 0.012463
vt 0.346418 0.249743
vt 0.424597 0.123246
vt 0.424597 0.123246
vt 0.346418 0.249743
vt 0.493063 0.407334
vt 0.503647 0.406788
vt 0.571903 0.117483
vt 0.612947 0.221926
vt 0.612947 0.221926
vt 0.571903 0.117483
vt 0.746963 0.004636
vt 0.612947 0.221926
vt 0.746963 0.004636
vt 0.746963 0.21589
vt 0.746963 0.21589
vt 0.746963 0.004636
vt 0.881009 0.221926
vt 0.746963 0.21589
vt 0.881009 0.221926
vt 0.746963 0.406788
vt 0.746963 0.406788
vt 0.881009 0.221926
vt 0.885369 0.406788
vt 0.151663 0.249743
vt 0.005048 0.407334
vt 0.148506 0.407334
vt 0.148506 0.407334
vt 0.005048 0.407334
vt 0.151663 0.564894
vt 0.148506 0.407334
vt 0.151663 0.564894
vt 0.249056 0.570051
vt 0.249056 0.570051
vt 0.151663 0.564894
vt 0.249056 0.802205
vt 0.249056 0.570051
vt 0.249056 0.802205
vt 0.346418 0.564894
vt 0.349605 0.407334
vt 0.249056 0.570051
vt 0.346418 0.564894
vt 0.249056 0.244617
vt 0.151663 0.249743
vt 0.148506 0.407334
vt 0.746963 0.21589
vt 0.746963 0.406788
vt 0.612947 0.221926
vt 0.612947 0.221926
vt 0.746963 0.406788
vt 0.608557 0.406788
vt 0.612947 0.221926
vt 0.608557 0.406788
vt 0.503647 0.406788
vt 0.503647 0.406788
vt 0.608557 0.406788
vt 0.612947 0.59165
vt 0.503647 0.406788
vt 0.612947 0.59165
vt 0.571903 0.696093
vt 0.506925 0.998625
vt 0.612556 0.79092
vt 0.505993 0.79001
vt 0.505993 0.79001
vt 0.612556 0.79092
vt 0.508097 0.581396
vt 0.505993 0.79001
vt 0.508097 0.581396
vt 0.399429 0.7891
vt 0.399429 0.7891
vt 0.506925 0.998625
vt 0.505993 0.79001
vt 0.005048 0.407334
vt 0.073515 0.691391
vt 0.151663 0.564894
vt 0.151663 0.564894
vt 0.073515 0.691391
vt 0.249056 0.802205
vt 0.746963 0.406788
vt 0.612947 0.59165
vt 0.608557 0.406788

# 240 Vertex Normals
vn -0.710077 -0.16282 -0.685041
vn -0.261256 -0.736906 -0.62347
vn -0.261256 -0.736906 -0.62347
vn 0.011662 -0.999912 -0.006342
vn -0.261256 -0.736906 -0.62347
vn 0.497759 -0.731897 0.465363
vn 0.062768 -0.3848 0.920863
vn 0.497759 -0.731897 0.465363
vn -0.163934 0.279102 0.946165
vn -0.643171 0.567174 0.514436
vn -0.163934 0.279102 0.946165
vn -0.163934 0.279102 0.946165
vn 0.431867 0.253592 0.865553
vn 0.509375 0.758712 0.406069
vn 0.509375 0.758712 0.406069
vn 0.041531 0.998394 -0.038523
vn 0.509375 0.758712 0.406069
vn -0.258759 0.732888 -0.629221
vn -0.841326 0.423399 -0.336012
vn -0.258759 0.732888 -0.629221
vn -0.960702 -0.248484 -0.123722
vn -0.69401 -0.528588 0.48882
vn -0.960702 -0.248484 -0.123722
vn -0.960702 -0.248484 -0.123722
vn 0.238095 0.240168 0.941079
vn -0.495654 -0.725075 0.478114
vn -0.012215 -0.425387 0.904929
vn -0.495654 -0.725075 0.478114
vn -0.495654 -0.725075 0.478114
vn -0.366574 -0.906086 -0.211264
vn 0.955459 0.256482 -0.145999
vn 0.713358 -0.133878 -0.687893
vn 0.955459 0.256482 -0.145999
vn 0.238095 0.240168 0.941079
vn 0.823835 0.170246 0.540659
vn 0.955459 0.256482 -0.145999
vn 0.684045 0.142454 -0.715394
vn 0.230943 0.735826 -0.636573
vn 0.230943 0.735826 -0.636573
vn -0.014319 0.999887 0.004492
vn 0.230943 0.735826 -0.636573
vn -0.472509 0.73558 0.485446
vn -0.028353 0.412553 0.910492
vn -0.472509 0.73558 0.485446
vn 0.204808 -0.225454 0.952483
vn 0.662573 -0.52267 0.536482
vn 0.204808 -0.225454 0.952483
vn 0.204808 -0.225454 0.952483
vn 0.247964 -0.71238 0.656528
vn -0.469286 -0.597479 0.650223
vn 0.247964 -0.71238 0.656528
vn -0.227849 0.024753 -0.973382
vn -0.790325 -0.069763 -0.608703
vn -0.227849 0.024753 -0.973382
vn 0.359417 -0.30742 -0.881086
vn -0.227849 0.024753 -0.973382
vn 0.884911 -0.238661 -0.399967
vn 0.247964 -0.71238 0.656528
vn 0.648508 -0.758823 0.060208
vn 0.884911 -0.238661 -0.399967
vn 0.862865 0.285373 -0.417165
vn -0.235703 -0.006066 -0.971806
vn 0.334736 0.34183 -0.878125
vn -0.235703 -0.006066 -0.971806
vn -0.235703 -0.006066 -0.971806
vn -0.795291 0.055819 -0.603653
vn 0.24138 0.716713 0.654261
vn -0.471429 0.573419 0.670034
vn 0.24138 0.716713 0.654261
vn 0.862865 0.285373 -0.417165
vn 0.621189 0.782112 0.049247
vn 0.24138 0.716713 0.654261
vn -0.567876 0.342343 0.748544
vn -0.477961 0.851428 0.215924
vn -0.477961 0.851428 0.215924
vn -0.455639 0.736035 -0.500646
vn -0.477961 0.851428 0.215924
vn -0.005335 0.39163 -0.920107
vn -0.272353 -0.249621 -0.929254
vn -0.005335 0.39163 -0.920107
vn -0.162164 -0.821591 -0.546527
vn -0.359066 -0.924372 0.128873
vn -0.162164 -0.821591 -0.546527
vn -0.162164 -0.821591 -0.546527
vn 0.169528 -0.835128 -0.523279
vn -0.098323 -0.352835 -0.930505
vn 0.169528 -0.835128 -0.523279
vn 0.493574 0.832284 0.252367
vn 0.175156 0.913914 -0.366171
vn 0.493574 0.832284 0.252367
vn 0.493574 0.832284 0.252367
vn 0.493574 0.832284 0.252367
vn 0.569823 0.3423 0.747083
vn 0.169528 -0.835128 -0.523279
vn 0.169528 -0.835128 -0.523279
vn 0.35767 -0.924757 0.129985
vn -0.0 -0.998284 0.058559
vn 0.694719 -0.714677 0.081252
vn 0.564324 -0.579655 0.587825
vn 0.564324 -0.579655 0.587825
vn 0.694719 -0.714677 0.081252
vn 0.998181 0.0 0.060286
vn 0.564324 -0.579655 0.587825
vn 0.998181 0.0 0.060286
vn 0.514393 0.0 0.857555
vn 0.514393 0.0 0.857555
vn 0.998181 0.0 0.060286
vn 0.564324 0.579655 0.587825
vn 0.514393 0.0 0.857555
vn 0.564324 0.579655 0.587825
vn -0.000007 0.524778 0.851239
vn -0.000007 0.524778 0.851239
vn 0.564324 0.579655 0.587825
vn -0.000003 0.998284 0.058562
vn -0.000007 0.524778 0.851239
vn -0.000003 0.998284 0.058562
vn -0.564323 0.579654 0.587828
vn -0.564323 0.579654 0.587828
vn -0.000003 0.998284 0.058562
vn -0.694718 0.714676 0.081266
vn -0.564323 0.579654 0.587828
vn -0.694718 0.714676 0.081266
vn -0.998181 0.000003 0.06029
vn -0.000003 0.998284 0.058562
vn 0.694719 0.714677 0.081252
vn 0.569075 0.584622 -0.578248
vn 0.569075 0.584622 -0.578248
vn 0.694719 0.714677 0.081252
vn 0.998181 0.0 0.060286
vn 0.569075 0.584622 -0.578248
vn 0.998181 0.0 0.060286
vn 0.690266 0.0 -0.723556
vn 0.690266 0.0 -0.723556
vn 0.998181 0.0 0.060286
vn 0.569075 -0.584622 -0.578248
vn 0.690266 0.0 -0.723556
vn 0.569075 -0.584622 -0.578248
vn 0.0 0.0 -1.0
vn 0.0 0.0 -1.0
vn 0.569075 -0.584622 -0.578248
vn 0.0 -0.700458 -0.713693
vn 0.0 0.0 -1.0
vn 0.0 -0.700458 -0.713693
vn -0.569075 -0.584622 -0.578248
vn -0.569075 -0.584622 -0.578248
vn 0.0 -0.700458 -0.713693
vn -0.0 -0.998284 0.058559
vn -0.569075 -0.584622 -0.578248
vn -0.0 -0.998284 0.058559
vn -0.694719 -0.714677 0.081252
vn 0.998181 0.0 0.060286
vn 0.694719 -0.714677 0.081252
vn 0.569075 -0.584622 -0.578248
vn 0.569075 -0.584622 -0.578248
vn 0.694719 -0.714677 0.081252
vn -0.0 -0.998284 0.058559
vn 0.569075 -0.584622 -0.578248
vn -0.0 -0.998284 0.058559
vn 0.0 -0.700458 -0.713693
vn -0.000003 0.998284 0.058562
vn 0.564324 0.579655 0.587825
vn 0.694719 0.714677 0.081252
vn 0.694719 0.714677 0.081252
vn 0.564324 0.579655 0.587825
vn 0.998181 0.0 0.060286
vn -0.998181 0.000003 0.06029
vn -0.694718 0.714676 0.081266
vn -0.569075 0.584622 -0.578248
vn -0.569075 0.584622 -0.578248
vn -0.694718 0.714676 0.081266
vn -0.000003 0.998284 0.058562
vn -0.569075 0.584622 -0.578248
vn -0.000003 0.998284 0.058562
vn -0.0 0.700458 -0.713693
vn -0.0 0.700458 -0.713693
vn -0.000003 0.998284 0.058562
vn 0.569075 0.584622 -0.578248
vn -0.0 0.700458 -0.713693
vn 0.569075 0.584622 -0.578248
vn 0.0 0.0 -1.0
vn 0.0 0.0 -1.0
vn 0.569075 0.584622 -0.578248
vn 0.690266 0.0 -0.723556
vn -0.564323 0.579654 0.587828
vn -0.998181 0.000003 0.06029
vn -0.514395 0.000007 0.857554
vn -0.514395 0.000007 0.857554
vn -0.998181 0.000003 0.06029
vn -0.564324 -0.579655 0.587825
vn -0.514395 0.000007 0.857554
vn -0.564324 -0.579655 0.587825
vn 0.0 -0.524777 0.85124
vn 0.0 -0.524777 0.85124
vn -0.564324 -0.579655 0.587825
vn -0.0 -0.998284 0.058559
vn 0.0 -0.524777 0.85124
vn -0.0 -0.998284 0.058559
vn 0.564324 -0.579655 0.587825
vn 0.514393 0.0 0.857555
vn 0.0 -0.524777 0.85124
vn 0.564324 -0.579655 0.587825
vn -0.000007 0.524778 0.851239
vn -0.564323 0.579654 0.587828
vn -0.514395 0.000007 0.857554
vn -0.0 0.700458 -0.713693
vn 0.0 0.0 -1.0
vn -0.569075 0.584622 -0.578248
vn -0.569075 0.584622 -0.578248
vn 0.0 0.0 -1.0
vn -0.690266 0.0 -0.723556
vn -0.569075 0.584622 -0.578248
vn -0.690266 0.0 -0.723556
vn -0.998181 0.000003 0.06029
vn -0.998181 0.000003 0.06029
vn -0.690266 0.0 -0.723556
vn -0.569075 -0.584622 -0.578248
vn -0.998181 0.000003 0.06029
vn -0.569075 -0.584622 -0.578248
vn -0.694719 -0.714677 0.081252
vn 0.0 -0.524777 0.85124
vn 0.514393 0.0 0.857555
vn 0.0 0.0 1.0
vn 0.0 0.0 1.0
vn 0.514393 0.0 0.857555
vn -0.000007 0.524778 0.851239
vn 0.0 0.0 1.0
vn -0.000007 0.524778 0.851239
vn -0.514395 0.000007 0.857554
vn -0.514395 0.000007 0.857554
vn 0.0 -0.524777 0.85124
vn 0.0 0.0 1.0
vn -0.998181 0.000003 0.06029
vn -0.694719 -0.714677 0.081252
vn -0.564324 -0.579655 0.587825
vn -0.564324 -0.579655 0.587825
vn -0.694719 -0.714677 0.081252
vn -0.0 -0.998284 0.058559
vn 0.0 0.0 -1.0
vn -0.569075 -0.584622 -0.578248
vn -0.690266 0.0 -0.723556

# model3682, 80 grouped triangles

usemtl bomb
o model3682
g model3682

f 1/1/1 2/2/2 3/3/3
f 3/4/4 2/5/5 4/6/6
f 3/7/7 4/8/8 5/9/9
f 1/10/10 3/11/11 5/12/12
f 6/13/13 7/14/14 8/15/15
f 8/16/16 7/17/17 9/18/18
f 8/19/19 9/20/20 10/21/21
f 6/22/22 8/23/23 10/24/24
f 11/25/25 12/26/26 13/27/27
f 13/28/28 12/29/29 14/30/30
f 13/31/31 14/32/32 15/33/33
f 11/34/34 13/35/35 15/36/36
f 16/37/37 17/38/38 18/39/39
f 18/40/40 17/41/41 19/42/42
f 18/43/43 19/44/44 20/45/45
f 16/46/46 18/47/47 20/48/48
f 21/49/49 22/50/50 23/51/51
f 23/52/52 22/53/53 24/54/54
f 23/55/55 24/56/56 25/57/57
f 21/58/58 23/59/59 25/60/60
f 26/61/61 27/62/62 28/63/63
f 28/64/64 27/65/65 29/66/66
f 28/67/67 29/68/68 30/69/69
f 26/70/70 28/71/71 30/72/72
f 31/73/73 32/74/74 33/75/75
f 33/76/76 32/77/77 34/78/78
f 33/79/79 34/80/80 35/81/81
f 31/82/82 33/83/83 35/84/84
f 36/85/85 37/86/86 38/87/87
f 38/88/88 37/89/89 39/90/90
f 38/91/91 39/92/92 40/93/93
f 36/94/94 38/95/95 40/96/96
f 41/97/97 42/98/98 43/99/99
f 43/100/100 42/101/101 44/102/102
f 43/103/103 44/104/104 45/105/105
f 45/106/106 44/107/107 46/108/108
f 45/109/109 46/110/110 47/111/111
f 47/112/112 46/113/113 48/114/114
f 47/115/115 48/116/116 49/117/117
f 49/118/118 48/119/119 50/120/120
f 49/121/121 50/122/122 51/123/123
f 48/124/124 52/125/125 53/126/126
f 53/127/127 52/128/128 44/129/129
f 53/130/130 44/131/131 54/132/132
f 54/133/133 44/134/134 55/135/135
f 54/136/136 55/137/137 56/138/138
f 56/139/139 55/140/140 57/141/141
f 56/142/142 57/143/143 58/144/144
f 58/145/145 57/146/146 41/147/147
f 58/148/148 41/149/149 59/150/150
f 44/151/151 42/152/152 55/153/153
f 55/154/154 42/155/155 41/156/156
f 55/157/157 41/158/158 57/159/159
f 48/160/160 46/161/161 52/162/162
f 52/163/163 46/164/164 44/165/165
f 51/166/166 50/167/167 60/168/168
f 60/169/169 50/170/170 48/171/171
f 60/172/172 48/173/173 61/174/174
f 61/175/175 48/176/176 53/177/177
f 61/178/178 53/179/179 56/180/180
f 56/181/181 53/182/182 54/183/183
f 49/184/184 51/185/185 62/186/186
f 62/187/187 51/188/188 63/189/189
f 62/190/190 63/191/191 64/192/192
f 64/193/193 63/194/194 41/195/195
f 64/196/196 41/197/197 43/198/198
f 45/199/199 64/200/200 43/201/201
f 47/202/202 49/203/203 62/204/204
f 61/205/205 56/206/206 60/207/207
f 60/208/208 56/209/209 65/210/210
f 60/211/211 65/212/212 51/213/213
f 51/214/214 65/215/215 58/216/216
f 51/217/217 58/218/218 59/219/219
f 64/220/220 45/221/221 66/222/222
f 66/223/223 45/224/224 47/225/225
f 66/226/226 47/227/227 62/228/228
f 62/229/229 64/230/230 66/231/231
f 51/232/232 59/233/233 63/234/234
f 63/235/235 59/236/236 41/237/237
f 56/238/238 58/239/239 65/240/240
